<svg width="29" height="29" viewBox="0 0 29 29" fill="none" xmlns="http://www.w3.org/2000/svg">
  <path d="M11.4187 17.5812L5.07499 15.7687C4.6953 15.6936 4.34965 15.4988 4.08862 15.213C3.8276 14.9272 3.66492 14.5654 3.6244 14.1805C3.58388 13.7955 3.66765 13.4077 3.86345 13.0739C4.05924 12.74 4.35678 12.4775 4.71249 12.325L22.2937 4.71247C22.5545 4.58512 22.8476 4.53897 23.1349 4.57998C23.4222 4.621 23.6906 4.74729 23.9053 4.94252C24.1201 5.13775 24.2713 5.39293 24.3394 5.67505C24.4076 5.95717 24.3895 6.25324 24.2875 6.52497L16.675 24.2875C16.6512 24.5255 16.5807 24.7565 16.4677 24.9673C16.3546 25.1781 16.2011 25.3645 16.016 25.516C15.8308 25.6675 15.6177 25.781 15.3887 25.8501C15.1596 25.9192 14.9193 25.9425 14.6812 25.9187C14.4432 25.8949 14.2122 25.8245 14.0014 25.7114C13.7906 25.5983 13.6042 25.4448 13.4527 25.2597C13.3012 25.0745 13.1877 24.8614 13.1186 24.6324C13.0495 24.4034 13.0262 24.163 13.05 23.925L11.4187 17.5812Z" />
</svg>
