<svg viewBox="0 0 72 72" fill="none" xmlns="http://www.w3.org/2000/svg">
  <path d="M35.6841 50.533C43.8849 50.533 50.5329 43.885 50.5329 35.6842C50.5329 27.4835 43.8849 20.8354 35.6841 20.8354C27.4834 20.8354 20.8354 27.4835 20.8354 35.6842C20.8354 43.885 27.4834 50.533 35.6841 50.533Z" fill="url(#paint0_linear_48_6)"/>
  <path d="M49.639 7.77742L46.1496 16.2026C45.0122 18.9467 40.8961 17.242 42.0335 14.498L45.5229 6.07278C46.6604 3.32873 50.7764 5.03337 49.639 7.77742ZM29.3081 56.8585L25.8186 65.2837C24.6812 68.0277 20.5652 66.3231 21.7026 63.5791L25.192 55.1539C26.3294 52.4098 30.4455 54.1145 29.3081 56.8585ZM65.2777 25.8276L56.8526 29.317C54.1085 30.4544 52.4039 26.3384 55.1479 25.201L63.5731 21.7115C66.3172 20.5741 68.0218 24.6902 65.2777 25.8276ZM16.1966 46.1585L7.77146 49.648C5.02741 50.7854 3.32277 46.6693 6.06682 45.5319L14.492 42.0424C17.2361 40.905 18.9407 45.0211 16.1966 46.1585ZM63.5731 49.6509L55.1479 46.1615C52.4039 45.0241 54.1085 40.908 56.8526 42.0454L65.2777 45.5349C68.0218 46.6723 66.3172 50.7883 63.5731 49.6509ZM14.492 29.32L6.06682 25.8305C3.32277 24.6931 5.02741 20.5771 7.77146 21.7145L16.1966 25.2039C18.9407 26.3413 17.2361 30.4574 14.492 29.32ZM25.8157 6.06981L29.3051 14.495C30.4425 17.2391 26.3265 18.9437 25.1891 16.1996L21.6996 7.77445C20.5622 5.0304 24.6783 3.32576 25.8157 6.06981ZM46.1466 55.1509L49.6361 63.5761C50.7735 66.3201 46.6574 68.0248 45.52 65.2807L42.0305 56.8555C40.8931 54.1115 45.0092 52.4069 46.1466 55.1509Z" fill="#FFB300"/>
  <defs>
    <linearGradient id="paint0_linear_48_6" x1="1505.71" y1="22.647" x2="1505.71" y2="2951" gradientUnits="userSpaceOnUse">
      <stop offset="0.00062" stop-color="#FFCE47"/>
      <stop offset="1" stop-color="#FFB300"/>
    </linearGradient>
  </defs>
</svg>
